<svg id="Layer_1_Image" data-name="Layer 1 Image" xmlns="http://www.w3.org/2000/svg" viewBox="0 0 43.44 35.86"><defs><style>.cls-1{fill:#215398;}.cls-2{fill:#28a9e0;}</style></defs><title>logo_takie_tam</title><polygon class="cls-1" points="21.38 0 10.84 4.81 21.57 9.61 31.73 4.81 21.38 0"/><polygon class="cls-1" points="21.38 12.12 10.84 16.93 21.57 21.74 31.73 16.93 21.38 12.12"/><polygon class="cls-1" points="21.57 26.25 11.03 31.05 21.75 35.86 31.91 31.05 21.57 26.25"/><path class="cls-2" d="M13.7,8.06v5.06L6.14,16.64.59,14.1Z"/><path class="cls-2" d="M15.64,26.8V21.74L0,14.46v5.08Z"/><path class="cls-2" d="M29.68,8.06v5.06l7.56,3.52,5.55-2.54Z"/><path class="cls-2" d="M27.8,26.8c0-.12,0-5.06,0-5.06l15.63-7.28v5.08Z"/></svg>