<svg id="Layer_1" data-name="Layer 1" xmlns="http://www.w3.org/2000/svg" viewBox="0 0 35.85 43.18"><defs><style>.cls-1{fill:#cbcccb;}</style></defs><title>logo_svg</title><path class="cls-1" d="M17.08,26.4a6.81,6.81,0,1,0,6.81,6.8A6.81,6.81,0,0,0,17.08,26.4Z"/><path class="cls-1" d="M27.86,16.49a5.26,5.26,0,1,0-5.26,5.25A5.27,5.27,0,0,0,27.86,16.49Z"/><path class="cls-1" d="M6.32,33.2A10.77,10.77,0,0,1,16.81,22.45,8.31,8.31,0,0,1,22.6,8.18a8.51,8.51,0,0,1,2,.25l-.34-.22A21.67,21.67,0,0,1,16.11,0a8.63,8.63,0,0,1,.25,2,9.17,9.17,0,0,1-5.7,8.33v0A16.87,16.87,0,0,0,0,25.82,16.75,16.75,0,0,0,9.28,40.61,10.74,10.74,0,0,1,6.32,33.2Z"/><path class="cls-1" d="M35.8,24.56h0c0-.18.09-5.68-5.71-11.68A8.32,8.32,0,0,1,23.7,24.73a10.75,10.75,0,0,1-.24,17.14,17,17,0,0,0,12.39-16C35.85,25.4,35.84,25,35.8,24.56Z"/></svg>